<svg width="14" height="25" fill="none" xmlns="http://www.w3.org/2000/svg"><path d="M2.995 14.831l2.78-6.402h.932v1.811l-1.972 4.591h1.47v-.825c0-.2.335-.215.502-.197v2.529c-.459 0-.526-.156-.502-.233v-.718h-1.74L.162 25H0l1.094-3.318S.126 21.306.448 20.5c.323-.807 2.26-5.112 2.26-5.112H.448v-.556h2.547z" fill="#fff"/><path d="M10.24 14.831L7.46 8.43h-.932v1.811l1.973 4.591H7.03v-.825c0-.2-.336-.215-.503-.197v2.529c.46 0 .526-.156.502-.233v-.718h1.74L13.074 25h.161l-1.094-3.318s.969-.376.646-1.183c-.323-.807-2.26-5.112-2.26-5.112h2.26v-.556H10.24z" fill="#fff"/><path fill-rule="evenodd" clip-rule="evenodd" d="M6.636 7.496a1.901 1.901 0 100-3.802 1.901 1.901 0 000 3.802zm0 1.04a2.941 2.941 0 100-5.882 2.941 2.941 0 000 5.883z" fill="#fff"/><path d="M6.097 0h1.077v2.834H6.097V0z" fill="#fff"/></svg>